<svg width="41" height="41" viewBox="0 0 41 41" fill="none" xmlns="http://www.w3.org/2000/svg">
<path d="M10.8618 1.11279H30.145C35.5051 1.11288 39.894 5.50194 39.894 10.8618V30.144C39.8939 35.5038 35.5051 39.892 30.145 39.8921H23.7593L20.4644 39.0894L20.2524 39.0376L20.0435 39.0972L17.229 39.8921H10.8618C5.50187 39.8919 1.1129 35.5038 1.11279 30.144V10.8618C1.1128 5.50202 5.50181 1.113 10.8618 1.11279Z" stroke="white" stroke-width="1.65694"/>
<path d="M24.9824 9.67383C26.0445 9.67383 27.1418 9.76923 27.9805 9.86621C28.2441 9.8967 28.4806 9.92769 28.6807 9.95508V13.3877H26.959C25.523 13.3877 24.4451 13.8406 23.7422 14.6533C23.0586 15.4437 22.835 16.4544 22.835 17.374V21.9951H28.3057L27.6631 26.1836H22.835V39.8936H18.1738V26.1836H13.04V21.9951H18.1738V16.7129C18.1738 14.3442 18.8753 12.6071 20.0176 11.4639C21.1606 10.3198 22.8405 9.67388 24.9824 9.67383Z" fill="white" stroke="white" stroke-width="1.65694"/>
</svg>
