<svg width="552" height="2048" viewBox="0 0 552 2048" fill="none" xmlns="http://www.w3.org/2000/svg">
<rect x="0.000732422" y="0.759277" width="551.02" height="482.142" fill="#D9D9D9"/>
<rect x="0.000488281" y="515.963" width="551.02" height="482.142" fill="#D9D9D9"/>
<rect x="0.000732422" y="1031.17" width="551.02" height="482.142" fill="#D9D9D9"/>
<rect x="0.000732422" y="1565.66" width="551.02" height="482.142" fill="#D9D9D9"/>
<rect x="476.633" y="14.5349" width="61.9897" height="61.9897" rx="20.6633" fill="#181818"/>
<rect x="476.633" y="93.0554" width="61.9897" height="61.9897" rx="20.6633" fill="#181818"/>
<rect x="476.633" y="171.576" width="61.9897" height="61.9897" rx="20.6633" fill="#181818"/>
<rect x="476.633" y="250.096" width="61.9897" height="61.9897" rx="20.6633" fill="#181818"/>
<rect x="476.633" y="328.616" width="61.9897" height="61.9897" rx="20.6633" fill="#181818"/>
<rect x="476.633" y="407.137" width="61.9897" height="61.9897" rx="20.6633" fill="#181818"/>
<rect x="476.633" y="529.738" width="61.9897" height="61.9897" rx="20.6633" fill="#181818"/>
<rect x="476.633" y="608.259" width="61.9897" height="61.9897" rx="20.6633" fill="#181818"/>
<rect x="476.633" y="686.779" width="61.9897" height="61.9897" rx="20.6633" fill="#181818"/>
<rect x="476.633" y="765.299" width="61.9897" height="61.9897" rx="20.6633" fill="#181818"/>
<rect x="476.633" y="843.82" width="61.9897" height="61.9897" rx="20.6633" fill="#181818"/>
<rect x="476.633" y="922.34" width="61.9897" height="61.9897" rx="20.6633" fill="#181818"/>
<rect x="476.633" y="1044.94" width="61.9897" height="61.9897" rx="20.6633" fill="#181818"/>
<rect x="476.633" y="1123.46" width="61.9897" height="61.9897" rx="20.6633" fill="#181818"/>
<rect x="476.633" y="1201.98" width="61.9897" height="61.9897" rx="20.6633" fill="#181818"/>
<rect x="476.633" y="1280.5" width="61.9897" height="61.9897" rx="20.6633" fill="#181818"/>
<rect x="476.633" y="1359.02" width="61.9897" height="61.9897" rx="20.6633" fill="#181818"/>
<rect x="476.633" y="1437.54" width="61.9897" height="61.9897" rx="20.6633" fill="#181818"/>
<rect x="476.633" y="1579.43" width="61.9897" height="61.9897" rx="20.6633" fill="#181818"/>
<rect x="476.633" y="1657.95" width="61.9897" height="61.9897" rx="20.6633" fill="#181818"/>
<rect x="476.633" y="1736.47" width="61.9897" height="61.9897" rx="20.6633" fill="#181818"/>
<rect x="476.633" y="1814.99" width="61.9897" height="61.9897" rx="20.6633" fill="#181818"/>
<rect x="476.633" y="1893.51" width="61.9897" height="61.9897" rx="20.6633" fill="#181818"/>
<rect x="476.633" y="1972.03" width="61.9897" height="61.9897" rx="20.6633" fill="#181818"/>
<rect x="12.3986" y="14.5347" width="61.9897" height="61.9897" rx="20.6633" fill="#181818"/>
<rect x="12.3986" y="93.0549" width="61.9897" height="61.9897" rx="20.6633" fill="#181818"/>
<rect x="12.3986" y="171.575" width="61.9897" height="61.9897" rx="20.6633" fill="#181818"/>
<rect x="12.3987" y="250.096" width="61.9897" height="61.9897" rx="20.6633" fill="#181818"/>
<rect x="12.3986" y="328.616" width="61.9897" height="61.9897" rx="20.6633" fill="#181818"/>
<rect x="12.3988" y="407.136" width="61.9897" height="61.9897" rx="20.6633" fill="#181818"/>
<rect x="12.3989" y="529.739" width="61.9897" height="61.9897" rx="20.6633" fill="#181818"/>
<rect x="12.399" y="608.259" width="61.9897" height="61.9897" rx="20.6633" fill="#181818"/>
<rect x="12.399" y="686.779" width="61.9897" height="61.9897" rx="20.6633" fill="#181818"/>
<rect x="12.3989" y="765.3" width="61.9897" height="61.9897" rx="20.6633" fill="#181818"/>
<rect x="12.3988" y="843.82" width="61.9897" height="61.9897" rx="20.6633" fill="#181818"/>
<rect x="12.399" y="922.34" width="61.9897" height="61.9897" rx="20.6633" fill="#181818"/>
<rect x="12.3988" y="1044.94" width="61.9897" height="61.9897" rx="20.6633" fill="#181818"/>
<rect x="12.3987" y="1123.46" width="61.9897" height="61.9897" rx="20.6633" fill="#181818"/>
<rect x="12.3989" y="1201.98" width="61.9897" height="61.9897" rx="20.6633" fill="#181818"/>
<rect x="12.3988" y="1280.5" width="61.9897" height="61.9897" rx="20.6633" fill="#181818"/>
<rect x="12.3987" y="1359.02" width="61.9897" height="61.9897" rx="20.6633" fill="#181818"/>
<rect x="12.3989" y="1437.54" width="61.9897" height="61.9897" rx="20.6633" fill="#181818"/>
<rect x="12.3987" y="1579.43" width="61.9897" height="61.9897" rx="20.6633" fill="#181818"/>
<rect x="12.3988" y="1657.95" width="61.9897" height="61.9897" rx="20.6633" fill="#181818"/>
<rect x="12.3989" y="1736.47" width="61.9897" height="61.9897" rx="20.6633" fill="#181818"/>
<rect x="12.3987" y="1814.99" width="61.9897" height="61.9897" rx="20.6633" fill="#181818"/>
<rect x="12.3987" y="1893.51" width="61.9897" height="61.9897" rx="20.6633" fill="#181818"/>
<rect x="12.3988" y="1972.03" width="61.9897" height="61.9897" rx="20.6633" fill="#181818"/>
</svg>
