<svg width="41" height="41" viewBox="0 0 41 41" fill="none" xmlns="http://www.w3.org/2000/svg">
<path d="M10.7266 1.11279H30.0098C35.3697 1.11287 39.7586 5.50188 39.7588 10.8618V30.145C39.7587 35.5051 35.3698 39.894 30.0098 39.894H10.7266C5.36663 39.8938 0.977626 35.505 0.977539 30.145V10.8618C0.977747 5.50196 5.3667 1.11301 10.7266 1.11279Z" stroke="white" stroke-width="1.65694"/>
<path d="M26.6452 12.8826C25.8777 12.8826 25.2554 13.5049 25.2554 14.2724C25.2554 15.0398 25.8777 15.6621 26.6452 15.6621C27.4126 15.6621 28.0349 15.0398 28.0349 14.2724C28.0349 13.5049 27.4126 12.8826 26.6452 12.8826Z" fill="white"/>
<mask id="path-3-inside-1_184_469" fill="white">
<path d="M20.4649 14.665C17.2456 14.665 14.6265 17.2842 14.6265 20.5035C14.6265 23.7228 17.2456 26.3419 20.4649 26.3419C23.6842 26.3419 26.3034 23.7228 26.3034 20.5035C26.3034 17.2842 23.6842 14.665 20.4649 14.665ZM20.4649 24.2441C18.403 24.2441 16.7256 22.5667 16.7256 20.5049C16.7256 18.443 18.403 16.7656 20.4649 16.7656C22.5268 16.7656 24.2042 18.443 24.2042 20.5049C24.2056 22.5653 22.5281 24.2441 20.4649 24.2441Z"/>
</mask>
<path d="M24.2042 20.5049L21.7188 20.5049L21.7188 20.5065L24.2042 20.5049ZM20.4649 14.665V12.1796C15.8729 12.1796 12.141 15.9115 12.141 20.5035H14.6265H17.1119C17.1119 18.6568 18.6183 17.1505 20.4649 17.1505V14.665ZM14.6265 20.5035H12.141C12.141 25.0954 15.8729 28.8274 20.4649 28.8274V26.3419V23.8565C18.6183 23.8565 17.1119 22.3502 17.1119 20.5035H14.6265ZM20.4649 26.3419V28.8274C25.0569 28.8274 28.7888 25.0955 28.7888 20.5035H26.3034H23.818C23.818 22.3501 22.3116 23.8565 20.4649 23.8565V26.3419ZM26.3034 20.5035H28.7888C28.7888 15.9115 25.0569 12.1796 20.4649 12.1796V14.665V17.1505C22.3116 17.1505 23.818 18.6569 23.818 20.5035H26.3034ZM20.4649 24.2441V21.7587C19.7757 21.7587 19.211 21.1941 19.211 20.5049H16.7256H14.2402C14.2402 23.9394 17.0304 26.7296 20.4649 26.7296V24.2441ZM16.7256 20.5049H19.211C19.211 19.8157 19.7757 19.251 20.4649 19.251V16.7656V14.2802C17.0304 14.2802 14.2402 17.0703 14.2402 20.5049H16.7256ZM20.4649 16.7656V19.251C21.1541 19.251 21.7188 19.8157 21.7188 20.5049H24.2042H26.6896C26.6896 17.0703 23.8994 14.2802 20.4649 14.2802V16.7656ZM24.2042 20.5049L21.7188 20.5065C21.7192 21.1927 21.1558 21.7587 20.4649 21.7587V24.2441V26.7296C23.9005 26.7296 26.6919 23.938 26.6896 20.5032L24.2042 20.5049Z" fill="white" mask="url(#path-3-inside-1_184_469)"/>
<path d="M15.6348 9.479H25.1006C28.5691 9.479 31.3934 12.3029 31.3936 15.771V25.2368C31.3936 28.7051 28.5705 31.5288 25.1006 31.5288H15.6348C12.1665 31.5287 9.34277 28.7051 9.34277 25.2368V15.771C9.34291 12.3015 12.1665 9.47913 15.6348 9.479ZM15.6367 10.0513C12.4828 10.0513 9.91713 12.6154 9.91699 15.771V25.2368C9.91699 28.3908 12.481 30.9565 15.6367 30.9565H25.1025C28.2563 30.9563 30.8223 28.3924 30.8223 25.2368V15.771C30.8221 12.6171 28.2564 10.0515 25.1025 10.0513H15.6367Z" stroke="white" stroke-width="1.65694"/>
</svg>
