<svg width="88" height="78" viewBox="0 0 88 78" fill="none" xmlns="http://www.w3.org/2000/svg">
<path d="M43.5498 1.33301C67.0077 1.33301 85.7666 18.3317 85.7666 39C85.7666 59.6683 67.0077 76.667 43.5498 76.667C20.092 76.6669 1.33301 59.6682 1.33301 39C1.33301 18.3318 20.092 1.3331 43.5498 1.33301Z" stroke="white" stroke-width="2.66633"/>
<path fill-rule="evenodd" clip-rule="evenodd" d="M43.8679 13.7649C36.2768 13.7649 30.123 19.414 30.123 26.3825C30.123 33.3511 36.2768 39.0002 43.8679 39.0002C51.459 39.0002 57.6128 33.3511 57.6128 26.3825C57.6128 19.414 51.459 13.7649 43.8679 13.7649ZM56.3792 41.4271C61.3067 37.9686 64.4853 32.5163 64.4853 26.3825C64.4853 15.9297 55.2546 7.45605 43.8679 7.45605C32.4812 7.45605 23.2505 15.9297 23.2505 26.3825C23.2505 32.5163 26.4291 37.9686 31.3566 41.4271C27.9016 42.8301 24.723 44.8156 21.9999 47.3153C19.8972 49.2456 18.1283 51.4255 16.7278 53.7789C14.1433 58.1219 15.1973 62.5501 18.1079 65.6814C20.9098 68.6958 25.3983 70.5443 30.123 70.5443H57.6128C62.3376 70.5443 66.826 68.6958 69.628 65.6814C72.5385 62.5501 73.5925 58.1219 71.008 53.7789C69.6075 51.4255 67.8387 49.2456 65.7359 47.3153C63.0129 44.8156 59.8342 42.8301 56.3792 41.4271ZM43.8679 45.309C37.4885 45.309 31.3704 47.6354 26.8594 51.7763C25.2238 53.2778 23.8482 54.9731 22.759 56.8034C21.7042 58.576 22.0445 60.1971 23.3358 61.5863C24.7357 63.0924 27.2566 64.2355 30.123 64.2355H57.6128C60.4792 64.2355 63.0001 63.0924 64.4001 61.5863C65.6914 60.1971 66.0316 58.576 64.9768 56.8035C63.8876 54.9731 62.512 53.2779 60.8764 51.7763C56.3655 47.6354 50.2473 45.309 43.8679 45.309Z" fill="white"/>
</svg>
