<svg width="264" height="236" viewBox="0 0 264 236" fill="none" xmlns="http://www.w3.org/2000/svg">
<path d="M131.767 4.0332C202.742 4.0332 259.5 55.4652 259.5 118C259.5 180.535 202.742 231.967 131.767 231.967C60.7915 231.967 4.0332 180.535 4.0332 118C4.0332 55.4652 60.7915 4.03323 131.767 4.0332Z" fill="#D9D9D9" stroke="#181818" stroke-width="8.06735"/>
<path fill-rule="evenodd" clip-rule="evenodd" d="M132.729 41.6468C109.761 41.6468 91.1413 58.739 91.1413 79.8233C91.1413 100.908 109.761 118 132.729 118C155.697 118 174.316 100.908 174.316 79.8233C174.316 58.739 155.697 41.6468 132.729 41.6468ZM170.583 125.343C185.492 114.879 195.109 98.382 195.109 79.8233C195.109 48.1969 167.18 22.5586 132.729 22.5586C98.2766 22.5586 70.3478 48.1969 70.3478 79.8233C70.3478 98.382 79.9649 114.879 94.8739 125.343C84.4202 129.588 74.8028 135.595 66.5637 143.158C60.2016 148.999 54.8497 155.594 50.6123 162.715C42.7927 175.855 45.9816 189.254 54.7879 198.728C63.2655 207.848 76.846 213.441 91.1414 213.441H174.316C188.611 213.441 202.192 207.848 210.669 198.728C219.475 189.254 222.664 175.855 214.845 162.715C210.607 155.594 205.255 148.999 198.893 143.158C190.654 135.595 181.037 129.588 170.583 125.343ZM132.729 137.088C113.427 137.088 94.9155 144.127 81.267 156.656C76.3181 161.199 72.1561 166.328 68.8606 171.866C65.6691 177.229 66.6986 182.134 70.6057 186.337C74.8413 190.894 82.4687 194.353 91.1414 194.353H174.316C182.988 194.353 190.616 190.894 194.851 186.337C198.758 182.134 199.788 177.229 196.597 171.866C193.301 166.328 189.139 161.199 184.19 156.656C170.542 144.127 152.03 137.088 132.729 137.088Z" fill="#181818"/>
</svg>
