<svg width="397" height="274" viewBox="0 0 397 274" fill="none" xmlns="http://www.w3.org/2000/svg">
<rect width="300" height="8" transform="matrix(1 0 0 -1 47 245)" fill="url(#paint0_linear_111_596)"/>
<rect width="250" height="77" rx="12" transform="matrix(-1 0 0 1 319 143)" fill="url(#paint1_linear_111_596)" fill-opacity="0.8"/>
<g filter="url(#filter0_f_111_596)">
<path d="M50 162C50 147.292 53.8411 132.728 61.3039 119.139C68.7667 105.551 79.7051 93.2042 93.4946 82.804C107.284 72.4039 123.655 64.154 141.672 58.5255C159.688 52.897 178.999 50 198.5 50C218.001 50 237.312 52.897 255.328 58.5255C273.345 64.154 289.716 72.4039 303.505 82.804C317.295 93.2042 328.233 105.551 335.696 119.139C343.159 132.728 347 147.292 347 162L198.5 162L50 162Z" fill="#D2D2D2"/>
</g>
<path d="M148.475 104.631L143.553 118H142.303L147.674 103.781H148.543L148.475 104.631ZM152.947 118L148.016 104.631L147.947 103.781H148.816L154.197 118H152.947ZM152.068 112.98V114.016H144.52V112.98H152.068ZM157.332 103V118H156.17V103H157.332ZM161.824 103V118H160.662V103H161.824ZM179.012 116.975V118H171.014V116.975H179.012ZM171.375 103.781V118H170.174V103.781H171.375ZM178.016 110.158V111.184H171.014V110.158H178.016ZM178.963 103.781V104.816H171.014V103.781H178.963ZM184.168 116.945L187.459 107.434H188.719L184.246 119.699C184.155 119.94 184.038 120.207 183.895 120.5C183.758 120.793 183.576 121.073 183.348 121.34C183.126 121.613 182.846 121.835 182.508 122.004C182.176 122.18 181.769 122.268 181.287 122.268C181.163 122.268 181.004 122.251 180.809 122.219C180.62 122.193 180.483 122.167 180.398 122.141L180.389 121.154C180.46 121.174 180.564 121.19 180.701 121.203C180.838 121.216 180.932 121.223 180.984 121.223C181.408 121.223 181.762 121.151 182.049 121.008C182.342 120.865 182.586 120.65 182.781 120.363C182.977 120.083 183.149 119.732 183.299 119.309L184.168 116.945ZM181.092 107.434L184.461 116.506L184.773 117.727L183.924 118.205L179.822 107.434H181.092ZM194.49 118.195C193.8 118.195 193.165 118.068 192.586 117.814C192.013 117.561 191.512 117.202 191.082 116.74C190.659 116.278 190.33 115.731 190.096 115.1C189.868 114.462 189.754 113.765 189.754 113.01V112.59C189.754 111.776 189.874 111.04 190.115 110.383C190.356 109.725 190.688 109.162 191.111 108.693C191.535 108.225 192.016 107.867 192.557 107.619C193.104 107.365 193.676 107.238 194.275 107.238C194.946 107.238 195.542 107.359 196.062 107.6C196.583 107.834 197.02 108.169 197.371 108.605C197.729 109.035 197.999 109.546 198.182 110.139C198.364 110.725 198.455 111.372 198.455 112.082V112.795H190.457V111.799H197.293V111.662C197.28 111.07 197.16 110.516 196.932 110.002C196.71 109.481 196.378 109.058 195.936 108.732C195.493 108.407 194.939 108.244 194.275 108.244C193.781 108.244 193.325 108.348 192.908 108.557C192.498 108.765 192.143 109.064 191.844 109.455C191.551 109.839 191.323 110.298 191.16 110.832C191.004 111.359 190.926 111.945 190.926 112.59V113.01C190.926 113.596 191.01 114.143 191.18 114.65C191.355 115.152 191.603 115.594 191.922 115.979C192.247 116.363 192.632 116.662 193.074 116.877C193.517 117.092 194.005 117.199 194.539 117.199C195.164 117.199 195.717 117.085 196.199 116.857C196.681 116.623 197.114 116.255 197.498 115.754L198.23 116.32C198.003 116.659 197.716 116.971 197.371 117.258C197.033 117.544 196.626 117.772 196.15 117.941C195.675 118.111 195.122 118.195 194.49 118.195ZM207.088 115.305C207.088 115.018 207.016 114.735 206.873 114.455C206.73 114.175 206.453 113.918 206.043 113.684C205.639 113.449 205.044 113.251 204.256 113.088C203.67 112.958 203.146 112.811 202.684 112.648C202.228 112.486 201.844 112.29 201.531 112.062C201.219 111.835 200.981 111.561 200.818 111.242C200.656 110.923 200.574 110.546 200.574 110.109C200.574 109.719 200.659 109.351 200.828 109.006C201.004 108.654 201.251 108.348 201.57 108.088C201.896 107.821 202.286 107.613 202.742 107.463C203.204 107.313 203.722 107.238 204.295 107.238C205.109 107.238 205.805 107.378 206.385 107.658C206.971 107.932 207.417 108.306 207.723 108.781C208.035 109.257 208.191 109.794 208.191 110.393H207.029C207.029 110.028 206.922 109.683 206.707 109.357C206.499 109.032 206.189 108.765 205.779 108.557C205.376 108.348 204.881 108.244 204.295 108.244C203.689 108.244 203.198 108.335 202.82 108.518C202.443 108.7 202.166 108.931 201.99 109.211C201.821 109.491 201.736 109.781 201.736 110.08C201.736 110.314 201.772 110.529 201.844 110.725C201.922 110.913 202.059 111.089 202.254 111.252C202.456 111.415 202.742 111.568 203.113 111.711C203.484 111.854 203.966 111.994 204.559 112.131C205.411 112.32 206.108 112.551 206.648 112.824C207.195 113.091 207.599 113.423 207.859 113.82C208.12 114.211 208.25 114.686 208.25 115.246C208.25 115.682 208.159 116.083 207.977 116.447C207.794 116.805 207.531 117.115 207.186 117.375C206.847 117.635 206.437 117.837 205.955 117.98C205.48 118.124 204.946 118.195 204.354 118.195C203.462 118.195 202.706 118.049 202.088 117.756C201.476 117.456 201.01 117.066 200.691 116.584C200.379 116.096 200.223 115.578 200.223 115.031H201.385C201.424 115.578 201.596 116.011 201.902 116.33C202.208 116.643 202.583 116.864 203.025 116.994C203.475 117.124 203.917 117.189 204.354 117.189C204.952 117.189 205.454 117.102 205.857 116.926C206.261 116.75 206.567 116.519 206.775 116.232C206.984 115.946 207.088 115.637 207.088 115.305ZM225.613 110.158V111.184H216.971V110.158H225.613ZM217.254 103.781V118H216.053V103.781H217.254ZM226.58 103.781V118H225.379V103.781H226.58ZM234.021 118.195C233.331 118.195 232.697 118.068 232.117 117.814C231.544 117.561 231.043 117.202 230.613 116.74C230.19 116.278 229.861 115.731 229.627 115.1C229.399 114.462 229.285 113.765 229.285 113.01V112.59C229.285 111.776 229.406 111.04 229.646 110.383C229.887 109.725 230.219 109.162 230.643 108.693C231.066 108.225 231.548 107.867 232.088 107.619C232.635 107.365 233.208 107.238 233.807 107.238C234.477 107.238 235.073 107.359 235.594 107.6C236.115 107.834 236.551 108.169 236.902 108.605C237.26 109.035 237.531 109.546 237.713 110.139C237.895 110.725 237.986 111.372 237.986 112.082V112.795H229.988V111.799H236.824V111.662C236.811 111.07 236.691 110.516 236.463 110.002C236.242 109.481 235.91 109.058 235.467 108.732C235.024 108.407 234.471 108.244 233.807 108.244C233.312 108.244 232.856 108.348 232.439 108.557C232.029 108.765 231.674 109.064 231.375 109.455C231.082 109.839 230.854 110.298 230.691 110.832C230.535 111.359 230.457 111.945 230.457 112.59V113.01C230.457 113.596 230.542 114.143 230.711 114.65C230.887 115.152 231.134 115.594 231.453 115.979C231.779 116.363 232.163 116.662 232.605 116.877C233.048 117.092 233.536 117.199 234.07 117.199C234.695 117.199 235.249 117.085 235.73 116.857C236.212 116.623 236.645 116.255 237.029 115.754L237.762 116.32C237.534 116.659 237.247 116.971 236.902 117.258C236.564 117.544 236.157 117.772 235.682 117.941C235.206 118.111 234.653 118.195 234.021 118.195ZM241.453 109.182V118H240.291V107.434H241.424L241.453 109.182ZM245.193 107.355L245.164 108.43C245.034 108.41 244.907 108.394 244.783 108.381C244.66 108.368 244.526 108.361 244.383 108.361C243.875 108.361 243.429 108.456 243.045 108.645C242.667 108.827 242.348 109.084 242.088 109.416C241.827 109.742 241.629 110.126 241.492 110.568C241.355 111.005 241.277 111.473 241.258 111.975L240.828 112.141C240.828 111.451 240.9 110.809 241.043 110.217C241.186 109.624 241.404 109.107 241.697 108.664C241.997 108.215 242.371 107.867 242.82 107.619C243.276 107.365 243.81 107.238 244.422 107.238C244.572 107.238 244.718 107.251 244.861 107.277C245.011 107.297 245.122 107.323 245.193 107.355ZM250.916 118.195C250.226 118.195 249.591 118.068 249.012 117.814C248.439 117.561 247.938 117.202 247.508 116.74C247.085 116.278 246.756 115.731 246.521 115.1C246.294 114.462 246.18 113.765 246.18 113.01V112.59C246.18 111.776 246.3 111.04 246.541 110.383C246.782 109.725 247.114 109.162 247.537 108.693C247.96 108.225 248.442 107.867 248.982 107.619C249.529 107.365 250.102 107.238 250.701 107.238C251.372 107.238 251.967 107.359 252.488 107.6C253.009 107.834 253.445 108.169 253.797 108.605C254.155 109.035 254.425 109.546 254.607 110.139C254.79 110.725 254.881 111.372 254.881 112.082V112.795H246.883V111.799H253.719V111.662C253.706 111.07 253.585 110.516 253.357 110.002C253.136 109.481 252.804 109.058 252.361 108.732C251.919 108.407 251.365 108.244 250.701 108.244C250.206 108.244 249.751 108.348 249.334 108.557C248.924 108.765 248.569 109.064 248.27 109.455C247.977 109.839 247.749 110.298 247.586 110.832C247.43 111.359 247.352 111.945 247.352 112.59V113.01C247.352 113.596 247.436 114.143 247.605 114.65C247.781 115.152 248.029 115.594 248.348 115.979C248.673 116.363 249.057 116.662 249.5 116.877C249.943 117.092 250.431 117.199 250.965 117.199C251.59 117.199 252.143 117.085 252.625 116.857C253.107 116.623 253.54 116.255 253.924 115.754L254.656 116.32C254.428 116.659 254.142 116.971 253.797 117.258C253.458 117.544 253.051 117.772 252.576 117.941C252.101 118.111 251.548 118.195 250.916 118.195Z" fill="#181818"/>
<defs>
<filter id="filter0_f_111_596" x="0" y="0" width="397" height="212" filterUnits="userSpaceOnUse" color-interpolation-filters="sRGB">
<feFlood flood-opacity="0" result="BackgroundImageFix"/>
<feBlend mode="normal" in="SourceGraphic" in2="BackgroundImageFix" result="shape"/>
<feGaussianBlur stdDeviation="25" result="effect1_foregroundBlur_111_596"/>
</filter>
<linearGradient id="paint0_linear_111_596" x1="150" y1="8" x2="150" y2="0" gradientUnits="userSpaceOnUse">
<stop offset="0.461538" stop-color="white"/>
<stop offset="0.600962" stop-color="#999999" stop-opacity="0.3"/>
</linearGradient>
<linearGradient id="paint1_linear_111_596" x1="125" y1="-15" x2="125" y2="77" gradientUnits="userSpaceOnUse">
<stop offset="0.485577" stop-color="white"/>
<stop offset="0.581731" stop-color="#403C3C"/>
</linearGradient>
</defs>
</svg>
