<svg width="25" height="25" viewBox="0 0 25 25" fill="none" xmlns="http://www.w3.org/2000/svg">
<g clip-path="url(#clip0_97_276)">
<path d="M12.5 15.6248C14.2259 15.6248 15.625 14.2257 15.625 12.4998C15.625 10.7739 14.2259 9.37484 12.5 9.37484C10.7741 9.37484 9.375 10.7739 9.375 12.4998C9.375 14.2257 10.7741 15.6248 12.5 15.6248Z" stroke="white" stroke-width="2" stroke-linecap="round" stroke-linejoin="round"/>
<path d="M20.2083 15.6248C20.0697 15.939 20.0283 16.2875 20.0896 16.6255C20.1508 16.9634 20.3119 17.2752 20.5521 17.5207L20.6146 17.5832C20.8083 17.7767 20.9619 18.0064 21.0668 18.2593C21.1716 18.5123 21.2256 18.7833 21.2256 19.0571C21.2256 19.3309 21.1716 19.602 21.0668 19.8549C20.9619 20.1078 20.8083 20.3376 20.6146 20.5311C20.4211 20.7248 20.1913 20.8785 19.9384 20.9833C19.6855 21.0881 19.4144 21.1421 19.1406 21.1421C18.8668 21.1421 18.5957 21.0881 18.3428 20.9833C18.0899 20.8785 17.8602 20.7248 17.6667 20.5311L17.6042 20.4686C17.3587 20.2284 17.0469 20.0674 16.7089 20.0061C16.371 19.9448 16.0225 19.9862 15.7083 20.1248C15.4002 20.2569 15.1375 20.4761 14.9524 20.7556C14.7673 21.0351 14.668 21.3626 14.6667 21.6978V21.8748C14.6667 22.4274 14.4472 22.9573 14.0565 23.348C13.6658 23.7387 13.1359 23.9582 12.5833 23.9582C12.0308 23.9582 11.5009 23.7387 11.1102 23.348C10.7195 22.9573 10.5 22.4274 10.5 21.8748V21.7811C10.4919 21.4363 10.3803 21.1019 10.1797 20.8214C9.97906 20.5409 9.69868 20.3272 9.375 20.2082C9.06081 20.0695 8.7123 20.0281 8.37439 20.0894C8.03647 20.1507 7.72466 20.3118 7.47916 20.5519L7.41666 20.6144C7.22318 20.8081 6.99341 20.9618 6.7405 21.0666C6.48759 21.1715 6.21649 21.2254 5.94271 21.2254C5.66892 21.2254 5.39783 21.1715 5.14491 21.0666C4.892 20.9618 4.66223 20.8081 4.46875 20.6144C4.27505 20.4209 4.12138 20.1912 4.01654 19.9383C3.9117 19.6853 3.85773 19.4142 3.85773 19.1405C3.85773 18.8667 3.9117 18.5956 4.01654 18.3427C4.12138 18.0898 4.27505 17.86 4.46875 17.6665L4.53125 17.604C4.77139 17.3585 4.93248 17.0467 4.99375 16.7088C5.05502 16.3709 5.01366 16.0224 4.875 15.7082C4.74295 15.4001 4.5237 15.1373 4.24423 14.9522C3.96476 14.7672 3.63728 14.6678 3.30208 14.6665H3.125C2.57246 14.6665 2.04256 14.447 1.65186 14.0563C1.26116 13.6656 1.04166 13.1357 1.04166 12.5832C1.04166 12.0306 1.26116 11.5007 1.65186 11.11C2.04256 10.7193 2.57246 10.4998 3.125 10.4998H3.21875C3.56353 10.4918 3.89792 10.3802 4.17843 10.1795C4.45895 9.9789 4.67262 9.69852 4.79166 9.37484C4.93033 9.06065 4.97169 8.71214 4.91042 8.37422C4.84915 8.03631 4.68806 7.7245 4.44791 7.479L4.38541 7.4165C4.19171 7.22302 4.03805 6.99325 3.93321 6.74034C3.82836 6.48743 3.7744 6.21633 3.7744 5.94255C3.7744 5.66876 3.82836 5.39767 3.93321 5.14475C4.03805 4.89184 4.19171 4.66207 4.38541 4.46859C4.5789 4.27489 4.80867 4.12122 5.06158 4.01638C5.31449 3.91154 5.58559 3.85757 5.85937 3.85757C6.13316 3.85757 6.40425 3.91154 6.65717 4.01638C6.91008 4.12122 7.13985 4.27489 7.33333 4.46859L7.39583 4.53109C7.64133 4.77123 7.95314 4.93232 8.29105 4.99359C8.62896 5.05486 8.97748 5.0135 9.29166 4.87484H9.375C9.68309 4.74279 9.94585 4.52354 10.1309 4.24407C10.316 3.9646 10.4153 3.63712 10.4167 3.30192V3.12484C10.4167 2.5723 10.6362 2.0424 11.0269 1.6517C11.4176 1.261 11.9475 1.0415 12.5 1.0415C13.0525 1.0415 13.5824 1.261 13.9731 1.6517C14.3638 2.0424 14.5833 2.5723 14.5833 3.12484V3.21859C14.5847 3.55378 14.684 3.88127 14.8691 4.16074C15.0541 4.44021 15.3169 4.65946 15.625 4.7915C15.9392 4.93017 16.2877 4.97153 16.6256 4.91026C16.9635 4.84899 17.2753 4.6879 17.5208 4.44775L17.5833 4.38525C17.7768 4.19155 18.0066 4.03789 18.2595 3.93305C18.5124 3.8282 18.7835 3.77424 19.0573 3.77424C19.3311 3.77424 19.6022 3.8282 19.8551 3.93305C20.108 4.03789 20.3378 4.19155 20.5312 4.38525C20.7249 4.57874 20.8786 4.80851 20.9835 5.06142C21.0883 5.31433 21.1423 5.58543 21.1423 5.85921C21.1423 6.13299 21.0883 6.40409 20.9835 6.657C20.8786 6.90992 20.7249 7.13969 20.5312 7.33317L20.4687 7.39567C20.2286 7.64117 20.0675 7.95298 20.0062 8.29089C19.945 8.6288 19.9863 8.97732 20.125 9.2915V9.37484C20.257 9.68293 20.4763 9.94569 20.7558 10.1308C21.0352 10.3158 21.3627 10.4152 21.6979 10.4165H21.875C22.4275 10.4165 22.9574 10.636 23.3481 11.0267C23.7388 11.4174 23.9583 11.9473 23.9583 12.4998C23.9583 13.0524 23.7388 13.5823 23.3481 13.973C22.9574 14.3637 22.4275 14.5832 21.875 14.5832H21.7812C21.4461 14.5845 21.1186 14.6838 20.8391 14.8689C20.5596 15.054 20.3404 15.3167 20.2083 15.6248Z" stroke="white" stroke-width="2" stroke-linecap="round" stroke-linejoin="round"/>
</g>
<defs>
<clipPath id="clip0_97_276">
<rect width="25" height="25" fill="white"/>
</clipPath>
</defs>
</svg>
