<svg width="917" height="618" viewBox="0 0 917 618" fill="none" xmlns="http://www.w3.org/2000/svg">
<path d="M56.3642 77.0651C58.4312 77.0651 60.3779 76.0927 61.6194 74.44L84.3595 44.1672C85.373 42.8179 85.8288 41.1306 85.6324 39.4546L81.8687 7.33773C81.4109 3.43126 84.4635 0 88.3967 0H833.054C837.33 0 840.468 4.01849 839.431 8.16684L831.805 38.6701C831.274 40.7926 831.835 43.0399 833.299 44.665L860.547 74.8931C861.794 76.2758 863.568 77.0651 865.429 77.0651H909.336C912.966 77.0651 915.909 80.0078 915.909 83.6379V264.141V455.161C915.909 458.791 912.966 461.734 909.336 461.734H6.57271C2.94269 461.734 0 458.791 0 455.161V83.6379C0 80.0079 2.94271 77.0651 6.57272 77.0651H56.3642Z" fill="white"/>
<path d="M859.708 540.935C857.641 540.935 855.694 541.907 854.453 543.56L831.713 573.833C830.699 575.182 830.243 576.869 830.44 578.545L834.204 610.662C834.661 614.569 831.609 618 827.676 618L83.018 618C78.742 618 75.6044 613.982 76.6415 609.833L84.2673 579.33C84.798 577.207 84.2377 574.96 82.7729 573.335L55.525 543.107C54.2786 541.724 52.5044 540.935 50.6429 540.935H6.73651C3.10645 540.935 0.163757 537.992 0.163757 534.362V353.859V162.839C0.163757 159.209 3.10645 156.266 6.73645 156.266L909.5 156.266C913.13 156.266 916.072 159.209 916.072 162.839V534.362C916.072 537.992 913.13 540.935 909.5 540.935H859.708Z" fill="white"/>
<path d="M104.435 99.4037C106.553 99.4037 108.542 98.3826 109.777 96.6609L129.451 69.2207C130.398 67.9 130.822 66.2753 130.641 64.6603L127.405 35.7304C126.97 31.8353 130.018 28.427 133.937 28.427H786.772C791.019 28.427 794.151 32.3943 793.165 36.5253L786.633 63.9025C786.143 65.9541 786.668 68.116 788.043 69.7148L811.621 97.1178C812.869 98.569 814.688 99.4037 816.603 99.4037H853.96C857.59 99.4037 860.533 102.346 860.533 105.976V271.7V447.109C860.533 450.739 857.59 453.682 853.96 453.682H61.9477C58.3177 453.682 55.375 450.739 55.375 447.109V105.976C55.375 102.346 58.3177 99.4037 61.9477 99.4037H104.435Z" stroke="black" stroke-width="3.28636"/>
<path d="M811.473 510.545C809.355 510.545 807.366 511.566 806.132 513.288L786.457 540.728C785.51 542.048 785.086 543.673 785.267 545.288L788.503 574.218C788.939 578.113 785.89 581.521 781.971 581.521L129.136 581.521C124.889 581.521 121.757 577.554 122.743 573.423L129.276 546.046C129.765 543.994 129.24 541.832 127.865 540.234L104.288 512.831C103.039 511.379 101.22 510.545 99.3053 510.545H61.9477C58.3177 510.545 55.375 507.602 55.375 503.972V338.248V162.839C55.375 159.209 58.3177 156.266 61.9477 156.266L853.961 156.266C857.591 156.266 860.533 159.209 860.533 162.839V503.972C860.533 507.602 857.59 510.545 853.96 510.545H811.473Z" stroke="black" stroke-width="3.28636"/>
<path d="M461.201 113.928L465.467 122.864L474.901 124.297C476.208 124.495 476.738 126.173 475.8 127.136L469.019 134.092L470.686 143.913C470.916 145.273 469.558 146.31 468.387 145.668L459.93 141.031L451.526 145.668C450.362 146.31 448.992 145.273 449.207 143.913L450.761 134.092L443.9 127.136C442.951 126.173 443.462 124.495 444.766 124.297L454.183 122.864L458.347 113.928C458.924 112.691 460.61 112.691 461.201 113.928Z" fill="black"/>
<path d="M494.334 121.68L496.468 126.148L501.185 126.864C501.838 126.964 502.103 127.802 501.634 128.284L498.243 131.762L499.077 136.673C499.192 137.353 498.513 137.871 497.927 137.55L493.699 135.231L489.497 137.55C488.915 137.871 488.23 137.353 488.338 136.673L489.114 131.762L485.684 128.284C485.209 127.802 485.465 126.964 486.117 126.864L490.826 126.148L492.908 121.68C493.196 121.061 494.039 121.061 494.334 121.68Z" fill="black"/>
<path d="M426.964 121.68L429.098 126.148L433.815 126.864C434.468 126.964 434.733 127.802 434.264 128.284L430.873 131.762L431.707 136.673C431.822 137.353 431.143 137.871 430.557 137.55L426.329 135.231L422.127 137.55C421.545 137.871 420.86 137.353 420.967 136.673L421.744 131.762L418.314 128.284C417.839 127.802 418.095 126.964 418.747 126.864L423.455 126.148L425.537 121.68C425.826 121.061 426.669 121.061 426.964 121.68Z" fill="black"/>
<line x1="509.393" y1="129.267" x2="661.222" y2="129.267" stroke="black" stroke-width="0.328636"/>
<line x1="257" y1="129.267" x2="408.83" y2="129.267" stroke="black" stroke-width="0.328636"/>
<path d="M462.201 462.928L466.467 471.864L475.901 473.297C477.208 473.495 477.738 475.173 476.8 476.136L470.019 483.092L471.686 492.913C471.916 494.273 470.558 495.31 469.387 494.668L460.93 490.031L452.526 494.668C451.362 495.31 449.992 494.273 450.207 492.913L451.761 483.092L444.9 476.136C443.951 475.173 444.462 473.495 445.766 473.297L455.183 471.864L459.347 462.928C459.924 461.691 461.61 461.691 462.201 462.928Z" fill="black"/>
<path d="M495.334 470.68L497.468 475.148L502.185 475.864C502.838 475.964 503.103 476.802 502.634 477.284L499.243 480.762L500.077 485.673C500.192 486.353 499.513 486.871 498.927 486.55L494.699 484.231L490.497 486.55C489.915 486.871 489.23 486.353 489.338 485.673L490.114 480.762L486.684 477.284C486.209 476.802 486.465 475.964 487.117 475.864L491.826 475.148L493.908 470.68C494.196 470.061 495.039 470.061 495.334 470.68Z" fill="black"/>
<path d="M427.964 470.68L430.098 475.148L434.815 475.864C435.468 475.964 435.733 476.802 435.264 477.284L431.873 480.762L432.707 485.673C432.822 486.353 432.143 486.871 431.557 486.55L427.329 484.231L423.127 486.55C422.545 486.871 421.86 486.353 421.967 485.673L422.744 480.762L419.314 477.284C418.839 476.802 419.095 475.964 419.747 475.864L424.455 475.148L426.537 470.68C426.826 470.061 427.669 470.061 427.964 470.68Z" fill="black"/>
<line x1="510.393" y1="478.267" x2="662.222" y2="478.267" stroke="black" stroke-width="0.328636"/>
<line x1="258" y1="478.267" x2="409.83" y2="478.267" stroke="black" stroke-width="0.328636"/>
</svg>
