<svg width="41" height="41" viewBox="0 0 41 41" fill="none" xmlns="http://www.w3.org/2000/svg">
<path d="M10.5913 1.11279H29.8745C35.2345 1.11287 39.6233 5.50187 39.6235 10.8618V30.145C39.6234 35.5051 35.2346 39.894 29.8745 39.894H10.5913C5.23139 39.8938 0.842372 35.505 0.842285 30.145V10.8618C0.842493 5.50197 5.23146 1.11301 10.5913 1.11279Z" stroke="white" stroke-width="1.65694"/>
<path d="M24.6382 12.2356C25.1845 12.2006 25.7366 12.2891 26.2368 12.4934H26.2378C26.6228 12.6504 26.9664 12.8635 27.2935 13.1418L27.3013 13.1477C27.3252 13.1676 27.354 13.1982 27.4419 13.2971L27.4585 13.3157L27.4761 13.3333C27.5772 13.4342 27.7224 13.539 27.9165 13.594C28.1111 13.649 28.2942 13.6365 28.4448 13.5989H28.4458C28.6467 13.5486 28.8447 13.492 29.0415 13.4329L29.3032 14.9768C29.2425 15.0261 29.1814 15.0751 29.1187 15.1223C29.1172 15.1233 29.1145 15.1247 29.1108 15.1272C29.0894 15.1417 29.1004 15.1352 29.0688 15.1565C29.0347 15.1795 28.9704 15.2223 28.9048 15.2786C28.7859 15.3805 28.519 15.6462 28.519 16.0813C28.519 19.5961 27.6201 22.9828 25.1792 25.4084C22.0462 28.521 17.2986 29.4043 13.0317 28.2258C12.8645 28.1796 12.6992 28.1283 12.5347 28.0745C12.9619 27.9837 13.3819 27.869 13.7886 27.7268C14.1009 27.6174 14.66 27.4313 15.187 27.1907C15.4522 27.0696 15.7302 26.9248 15.98 26.7571C16.1989 26.61 16.4379 26.4168 16.6206 26.1682C16.6299 26.1579 16.6407 26.1483 16.6499 26.137C16.6722 26.1097 16.6923 26.0815 16.7104 26.053L17.3364 25.0686L16.2007 24.801C16.063 24.7687 15.9353 24.7551 15.8501 24.7463C15.7725 24.7383 15.7296 24.7319 15.6938 24.7268C14.8152 24.4721 13.8735 24.1073 13.2085 23.2122C13.4945 23.1958 13.7109 23.1595 13.9282 23.1116L13.8882 21.4856C13.775 21.4664 13.636 21.4228 13.4917 21.3616L13.4624 21.3499C12.4348 20.9586 11.6167 20.0426 11.271 18.9788C11.3168 18.99 11.3609 19.0024 11.4038 19.012C11.5936 19.0542 11.7619 19.0822 11.894 19.0989C11.9595 19.1071 12.0216 19.1131 12.0767 19.1165C12.1036 19.1181 12.1357 19.1195 12.1694 19.1194C12.1841 19.1193 12.2666 19.12 12.3618 19.0999L14.1099 18.7307L12.6987 17.635C12.5353 17.5082 12.3771 17.3634 12.2007 17.1965C11.6872 16.709 11.2939 15.9253 11.1548 15.0696C11.0734 14.5693 11.0873 14.0831 11.188 13.6487C13.658 16.096 16.6258 17.277 20.0601 17.7883L20.0649 17.7893C20.0916 17.7931 20.1877 17.807 20.2983 17.7991C20.4167 17.7906 20.6947 17.746 20.9077 17.4885C21.0964 17.2602 21.1055 17.0128 21.1069 16.9436C21.1087 16.8584 21.0985 16.7816 21.0952 16.7561L21.0942 16.7483L21.0923 16.7405L21.0649 16.5286C21.0167 16.1101 21.0174 15.7235 21.0854 15.3479L21.1255 15.1604C21.2558 14.6267 21.5115 14.1183 21.8618 13.6858L21.8608 13.6848C22.2002 13.2669 22.6268 12.92 23.104 12.6711H23.105C23.5819 12.4218 24.1072 12.2717 24.6392 12.2366L24.6382 12.2356ZM16.5444 26.2434C16.5265 26.2596 16.5114 26.2725 16.5024 26.2795C16.4982 26.2828 16.495 26.2853 16.4937 26.2864H16.4927L16.4937 26.2854C16.4981 26.2821 16.5221 26.2614 16.5542 26.2327C16.5506 26.236 16.5479 26.2403 16.5444 26.2434Z" fill="white" stroke="white" stroke-width="1.65694"/>
</svg>
