<svg width="100" height="100" viewBox="0 0 100 100" fill="none" xmlns="http://www.w3.org/2000/svg">
<path fill-rule="evenodd" clip-rule="evenodd" d="M50.0002 16.6666C31.5907 16.6666 16.6668 31.5905 16.6668 50C16.6668 58.7463 20.0338 66.7078 25.5501 72.6572C25.7584 71.9682 26.0354 71.2913 26.3967 70.6453C27.6217 68.4551 29.167 66.4298 31.0005 64.639C32.8406 62.8418 34.9166 61.3335 37.1558 60.1419C33.7455 56.8775 31.6133 52.3152 31.6133 47.2222C31.6133 37.1584 39.9385 29.1666 50.0002 29.1666C60.0618 29.1666 68.387 37.1584 68.387 47.2222C68.387 52.3152 66.2549 56.8775 62.8446 60.1419C65.0837 61.3335 67.1597 62.8418 68.9998 64.639C70.8333 66.4298 72.3786 68.4551 73.6036 70.6453C73.9649 71.2913 74.2419 71.9682 74.4502 72.6572C79.9666 66.7078 83.3335 58.7463 83.3335 50C83.3335 31.5905 68.4097 16.6666 50.0002 16.6666ZM66.4215 79.0153C66.5833 78.183 66.6643 77.4018 66.6668 76.7095C66.6708 75.5658 66.4613 74.9468 66.3306 74.7131C65.4949 73.219 64.4377 71.8319 63.1771 70.6006C59.6987 67.2033 54.9606 65.2778 50.0002 65.2778C45.0397 65.2778 40.3016 67.2033 36.8232 70.6006C35.5626 71.8318 34.5054 73.219 33.6698 74.7131C33.5391 74.9468 33.3295 75.5658 33.3336 76.7095C33.336 77.4018 33.4171 78.183 33.5788 79.0153C38.4231 81.7636 44.0231 83.3333 50.0002 83.3333C55.9773 83.3333 61.5772 81.7636 66.4215 79.0153ZM50.0002 56.9444C55.6457 56.9444 60.0537 52.4996 60.0537 47.2222C60.0537 41.9448 55.6457 37.5 50.0002 37.5C44.3546 37.5 39.9467 41.9448 39.9467 47.2222C39.9467 52.4996 44.3546 56.9444 50.0002 56.9444ZM8.3335 50C8.3335 26.9881 26.9883 8.33331 50.0002 8.33331C73.012 8.33331 91.6668 26.9881 91.6668 50C91.6668 64.8219 83.9246 77.8326 72.2834 85.2132C65.8365 89.3006 58.1883 91.6666 50.0002 91.6666C41.8121 91.6666 34.1638 89.3006 27.7169 85.2132C16.0757 77.8326 8.3335 64.8219 8.3335 50Z" fill="white"/>
</svg>
